<?xml version="1.0" encoding="utf-8"?>
<!-- Generator: Adobe Illustrator 25.1.0, SVG Export Plug-In . SVG Version: 6.00 Build 0)  -->
<svg version="1.1" id="Layer_1" xmlns="http://www.w3.org/2000/svg" xmlns:xlink="http://www.w3.org/1999/xlink" x="0px" y="0px"
	 viewBox="0 0 630.9 252.3" style="enable-background:new 0 0 630.9 252.3;" xml:space="preserve">
<path d="M303.4,129.1h33.5c13.2,0,25.5,6,25.5,22.7c0,17.5-10,24.3-25.5,24.3h-15.1v23.5h-18.4V129.1z M321.8,161.9h12.4
	c5.7,0,9.9-2.4,9.9-8.8c0-6.6-4.2-9.3-9.9-9.3h-12.4V161.9z"/>
<path d="M386.2,129.1h18.7l26.4,70.6h-19.2l-4.3-12.7h-24.6l-4.5,12.7h-18.9L386.2,129.1z M387.4,173.4h16l-7.8-24.7h-0.2
	L387.4,173.4z"/>
<path d="M451.4,176c0.4,8.3,5.5,11,13.3,11c5.5,0,11.3-2,11.3-7.2c0-6.2-10.1-7.4-20.3-10.3s-20.6-7.5-20.6-20.4
	c0-15.4,15.5-21.5,28.8-21.5c14,0,28.2,6.8,28.3,22.8h-18.4c0.3-6.4-5.7-8.5-11.4-8.5c-4,0-8.9,1.4-8.9,6c0,5.4,10.2,6.4,20.5,9.3
	s20.5,7.6,20.5,20.4c0,17.9-15.2,23.6-30.8,23.6c-16.2,0-30.5-7.1-30.7-25.2L451.4,176z"/>
<path d="M519.2,176c0.4,8.3,5.5,11,13.3,11c5.5,0,11.3-2,11.3-7.2c0-6.2-10.1-7.4-20.3-10.3s-20.7-7.4-20.7-20.4
	c0-15.4,15.5-21.5,28.8-21.5c14,0,28.2,6.8,28.3,22.8h-18.4c0.3-6.4-5.7-8.5-11.4-8.5c-4,0-8.9,1.4-8.9,6c0,5.4,10.2,6.4,20.5,9.3
	s20.5,7.6,20.5,20.4c0,17.9-15.2,23.6-30.8,23.6c-16.2,0-30.5-7.1-30.7-25.2L519.2,176z"/>
<path d="M375.5,51.2h32.1c12.6,0,24.4,5.8,24.4,21.8c0,16.8-9.6,23.3-24.4,23.3h-14.5v22.5h-17.6L375.5,51.2z M393.1,82.6h11.8
	c5.5,0,9.5-2.3,9.5-8.4c0-6.3-4.1-8.9-9.5-8.9h-11.8V82.6z"/>
<path d="M440.4,51.2h17.7v52.4h31.5v15.1h-49.1L440.4,51.2z"/>
<path d="M497.9,51.2h34.4c11.9,0,23.7,5.4,23.7,19c0,7.3-3.5,14.2-10.6,16.9v0.2c7.2,1.7,9.3,9.7,9.8,16.2
	c0.2,2.8,0.5,12.8,2.8,15.2h-17.4c-1.5-2.3-1.8-8.9-2-10.8c-0.5-6.8-1.6-13.8-9.8-13.8h-13.3v24.6h-17.6V51.2z M515.5,80.5h14.8
	c5.3,0,8.1-2.8,8.1-7.9s-4-7.3-8.9-7.3h-14L515.5,80.5z"/>
<polygon points="367.7,51.1 347,51.1 334.7,69.5 322.3,51.1 301.6,51.1 324.1,85.1 301.6,118.7 323,118.7 334.7,101 346.4,118.7 
	367.7,118.7 345.2,85.1 "/>
<path d="M631,252.3H232.9V0H631V252.3z M252.9,232.3h358.1V20H252.9V232.3z"/>
<path d="M252.3,252.3H0V0h252.3L252.3,252.3z M20,232.3h212.3V20H20L20,232.3z"/>
<polygon points="103.9,112.3 99.6,112.3 99.6,95.1 93.2,95.1 93.2,91.4 110.2,91.4 110.2,95.1 103.9,95.1 "/>
<polygon points="116.1,103 116.1,112.3 111.8,112.3 111.8,91.4 116.1,91.4 116.1,99.4 124.3,99.4 124.3,91.4 128.7,91.4 
	128.7,112.3 124.3,112.3 124.3,103 "/>
<polygon points="145.6,95.1 134.6,95.1 134.6,99.5 144.3,99.5 144.3,103.2 134.6,103.2 134.6,108.6 145.6,108.6 145.6,112.3 
	130.5,112.3 130.5,91.4 145.6,91.4 "/>
<polygon points="64,115.6 68.1,115.6 68.1,136.4 63.7,136.4 55.2,121.6 55.1,121.6 55.1,136.4 51,136.4 51,115.6 55.6,115.6 
	63.9,130.1 64,130.1 "/>
<path d="M80.1,115c2.8,0,10,1.2,10,11s-7.3,11-10,11s-10-1.2-10-11S77.4,115,80.1,115 M80.1,133.3c2.4,0,5.7-1.5,5.7-7.3
	s-3.3-7.3-5.7-7.3s-5.7,1.5-5.7,7.3S77.7,133.3,80.1,133.3"/>
<polygon points="120.8,136.4 116.5,136.4 116.5,119.2 110.2,119.2 110.2,115.6 127.1,115.6 127.1,119.2 120.8,119.2 "/>
<polygon points="133.1,127.1 133.1,136.4 128.7,136.4 128.7,115.6 133.1,115.6 133.1,123.5 141.2,123.5 141.2,115.6 145.6,115.6 
	145.6,136.4 141.2,136.4 141.2,127.1 "/>
<path d="M91.9,115.6h10.6c5.5,0,6.6,4.1,6.6,5.9c0.1,2.2-1.2,4.2-3.2,5c1.7,0.8,2.6,1.4,2.6,5.3c0,3,0,3.8,0.9,4.2v0.5h-4.8
	c-0.4-1.4-0.5-2.8-0.5-4.2c0-2.8-0.2-4-3.4-4h-4.5v8.2h-4.3V115.6z M101.3,124.8c2.3,0,3.4-0.8,3.4-2.8c0-1.1-0.5-2.7-3.1-2.7h-5.4
	v5.6L101.3,124.8z"/>
<polygon points="81.8,161.2 77.3,161.2 77.3,139.7 92.6,139.7 92.6,143.5 81.8,143.5 81.8,148.4 91.2,148.4 91.2,152.2 81.8,152.2 
	"/>
<path d="M94.6,161.2h-4.7l7.6-21.4h5.2l7.5,21.4h-4.9l-1.4-4.4h-7.9L94.6,161.2z M97.3,153.1h5.5l-2.7-8.5l0,0L97.3,153.1z"/>
<path d="M124,146.9c-0.4-1.3-1-3.7-4.7-3.7c-2.1,0-5.3,1.4-5.3,7.5c0,3.8,1.5,7.3,5.3,7.3c2.4,0.1,4.4-1.6,4.7-4h4.5
	c-0.9,4.7-3.9,7.9-9.3,7.9c-5.7,0-9.8-3.8-9.8-11.2s4.3-11.3,9.9-11.3c6.4,0,9,4.4,9.2,7.6L124,146.9z"/>
<polygon points="145.6,143.5 134.4,143.5 134.4,148 144.3,148 144.3,151.8 134.4,151.8 134.4,157.4 145.6,157.4 145.6,161.2 
	130.2,161.2 130.2,139.7 145.6,139.7 "/>
<path d="M159.9,148.8c0-5-4-9-9-9h-1v21.4h10V148.8z"/>
<path d="M201.1,141.6c0-27.7-22.4-50.1-50.1-50.1h-1.1v20.9h1.1c16.5,0,29.8,13.3,30.1,29.8v19h20V141.6z"/>
<path d="M177.9,142.4c-0.1-14.8-12.2-26.8-27-26.8h-1v20.9h1c6.7,0,12.2,5.5,12.2,12.2v12.5h14.8L177.9,142.4z"/>
</svg>
